<svg width="20" height="21" viewBox="0 0 20 21" fill="none" xmlns="http://www.w3.org/2000/svg">
<path d="M4.43688 20.1204C3.43688 20.1204 2.46688 19.7304 1.69688 18.9804C0.446877 17.7604 0.146877 15.9604 0.926877 14.4004L2.54688 11.1604C2.88688 10.4804 2.88688 9.6604 2.54688 8.9704L0.926877 5.7204C0.146877 4.1604 0.446877 2.3604 1.69688 1.1404C2.94688 -0.0796049 4.74688 -0.349605 6.29688 0.470395L17.8869 6.57039C18.5242 6.90341 19.058 7.40491 19.43 8.02028C19.8021 8.63565 19.9981 9.3413 19.9969 10.0604C19.9969 11.5304 19.1869 12.8704 17.8869 13.5504L6.29688 19.6504C5.69688 19.9704 5.06688 20.1204 4.43688 20.1204Z" fill="white"/>
</svg>
