<svg width="20" height="21" viewBox="0 0 20 21" fill="none" xmlns="http://www.w3.org/2000/svg">
<path d="M15.5592 20.1204C16.5592 20.1204 17.5292 19.7304 18.2992 18.9804C19.5492 17.7604 19.8492 15.9604 19.0692 14.4004L17.4492 11.1604C17.1092 10.4804 17.1092 9.6604 17.4492 8.9704L19.0692 5.7204C19.8492 4.1604 19.5492 2.3604 18.2992 1.1404C17.0492 -0.0796049 15.2492 -0.349605 13.6992 0.470395L2.10922 6.57039C1.47188 6.90341 0.938127 7.40491 0.566084 8.02028C0.19404 8.63565 -0.00203238 9.3413 -0.00078392 10.0604C-0.00078392 11.5304 0.809217 12.8704 2.10922 13.5504L13.6992 19.6504C14.2992 19.9704 14.9292 20.1204 15.5592 20.1204Z" fill="white" fill-opacity="0.3"/>
</svg>
