<svg width="19" height="18" viewBox="0 0 19 18" fill="none" xmlns="http://www.w3.org/2000/svg">
<path fill-rule="evenodd" clip-rule="evenodd" d="M5.72284 2.18086C5.23819 2.18086 4.8453 1.78797 4.8453 1.30332C4.8453 0.818669 5.23819 0.425781 5.72284 0.425781H12.7646V6.31172C12.7646 6.79637 12.3717 7.18926 11.887 7.18926C11.4024 7.18926 11.0095 6.79637 11.0095 6.31172V3.42189L2.10548 12.3259C1.76278 12.6686 1.20715 12.6686 0.864447 12.3259C0.521747 11.9832 0.521747 11.4276 0.864447 11.0849L9.76845 2.18086H5.72284Z" fill="#F2F2F2"/>
<path fill-rule="evenodd" clip-rule="evenodd" d="M13.0428 15.452C13.5274 15.452 13.9203 15.8448 13.9203 16.3295C13.9203 16.8141 13.5274 17.207 13.0428 17.207H6.00106V11.3211C6.00106 10.8364 6.39395 10.4436 6.8786 10.4436C7.36326 10.4436 7.75614 10.8364 7.75614 11.3211V14.2109L16.6601 5.30692C17.0028 4.96422 17.5585 4.96422 17.9012 5.30692C18.2439 5.64962 18.2439 6.20525 17.9012 6.54795L8.99717 15.452H13.0428Z" fill="#F2F2F2"/>
</svg>
