<svg width="20" height="20" viewBox="0 0 20 20" fill="none" xmlns="http://www.w3.org/2000/svg">
<path fill-rule="evenodd" clip-rule="evenodd" d="M9.9992 13.5286C11.9484 13.5286 13.5286 11.9484 13.5286 9.9992C13.5286 8.04996 11.9484 6.46978 9.9992 6.46978C8.04996 6.46978 6.46978 8.04996 6.46978 9.9992C6.46978 11.9484 8.04996 13.5286 9.9992 13.5286ZM9.9992 15.2933C12.9231 15.2933 15.2933 12.9231 15.2933 9.9992C15.2933 7.07534 12.9231 4.70508 9.9992 4.70508C7.07534 4.70508 4.70508 7.07534 4.70508 9.9992C4.70508 12.9231 7.07534 15.2933 9.9992 15.2933Z" fill="white"/>
<path fill-rule="evenodd" clip-rule="evenodd" d="M13.0615 2.60896L10 0L6.93853 2.60896L2.92893 2.92893L2.60896 6.93853L0 10L2.60896 13.0615L2.92893 17.0711L6.93853 17.391L10 20L13.0615 17.391L17.0711 17.0711L17.391 13.0615L20 10L17.391 6.93853L17.0711 2.92893L13.0615 2.60896ZM15.9781 4.02192L12.5883 3.75141L10 1.54572L7.41175 3.75141L4.02192 4.02192L3.75141 7.41175L1.54572 10L3.75141 12.5883L4.02192 15.9781L7.41175 16.2486L10 18.4543L12.5883 16.2486L15.9781 15.9781L16.2486 12.5883L18.4543 10L16.2486 7.41175L15.9781 4.02192Z" fill="white"/>
</svg>
