<svg width="16" height="12" viewBox="0 0 16 12" fill="none" xmlns="http://www.w3.org/2000/svg">
<path d="M10.4772 11.8822H3.81055C3.46888 11.8822 3.18555 11.5988 3.18555 11.2572C3.18555 10.9155 3.46888 10.6322 3.81055 10.6322H10.4772C11.4158 10.63 12.3154 10.2561 12.9791 9.5924C13.6428 8.92869 14.0167 8.02913 14.0189 7.0905C14.0167 6.15186 13.6428 5.2523 12.9791 4.58859C12.3154 3.92487 11.4158 3.55103 10.4772 3.54883H1.31055C0.96888 3.54883 0.685547 3.2655 0.685547 2.92383C0.685547 2.58216 0.96888 2.29883 1.31055 2.29883H10.4772C13.1189 2.29883 15.2689 4.44883 15.2689 7.0905C15.2689 9.73216 13.1189 11.8822 10.4772 11.8822V11.8822Z" fill="white"/>
<path d="M3.22712 5.63177C3.06879 5.63177 2.91045 5.57344 2.78545 5.44844L0.652121 3.3151C0.535887 3.19749 0.470703 3.0388 0.470703 2.87344C0.470703 2.70808 0.535887 2.54939 0.652121 2.43177L2.78545 0.298438C3.02712 0.0567708 3.42712 0.0567708 3.66879 0.298438C3.91045 0.540104 3.91045 0.940104 3.66879 1.18177L1.97712 2.87344L3.66879 4.5651C3.91045 4.80677 3.91045 5.20677 3.66879 5.44844C3.55212 5.57344 3.38545 5.63177 3.22712 5.63177V5.63177Z" fill="white"/>
</svg>
