<svg width="20" height="21" viewBox="0 0 20 21" fill="none" xmlns="http://www.w3.org/2000/svg">
<path fill-rule="evenodd" clip-rule="evenodd" d="M8.01215 2.05626C6.75852 2.29388 5.39753 3.00953 3.98379 4.4937C2.58226 5.96505 1.95631 7.39716 1.80209 8.73541C1.64684 10.0826 1.96126 11.4102 2.56804 12.6755C3.30155 14.205 4.43839 15.5938 5.57973 16.7315C5.4393 16.2828 5.31616 15.7943 5.24503 15.2716C4.97576 13.2928 5.4721 10.989 7.98281 8.35329C10.4509 5.76232 12.4462 5.09475 14.2593 5.3501C14.7561 5.42007 15.2177 5.55729 15.6425 5.71726C14.5246 4.4471 13.1607 3.26903 11.6657 2.58235C10.4939 2.04416 9.26663 1.81847 8.01215 2.05626ZM16.6178 7.8937C16.4397 7.81502 16.2665 7.73444 16.0999 7.65696C16.0122 7.6162 15.9264 7.5763 15.8428 7.53798C15.2195 7.2526 14.6472 7.01912 14.0363 6.93309C12.913 6.77489 11.399 7.08469 9.14032 9.45589C6.92425 11.7823 6.63279 13.6138 6.82904 15.056C6.93217 15.8139 7.17591 16.507 7.43474 17.1828C7.46458 17.2608 7.49534 17.34 7.52651 17.4203C7.56237 17.5127 7.59875 17.6065 7.63489 17.7011L16.6178 7.8937ZM12.3329 1.12964C15.1122 2.40617 17.3636 5.03425 18.69 7.12287L19.0182 7.63973L7.36436 20.3633L6.78243 19.9117C5.10516 18.6103 2.51508 16.262 1.12661 13.3667C0.426348 11.9065 0.0156264 10.2737 0.213991 8.55239C0.413388 6.82212 1.21981 5.07761 2.82627 3.39112C4.42051 1.71744 6.0675 0.797786 7.71444 0.485613C9.36051 0.173603 10.9264 0.483629 12.3329 1.12964Z" fill="white"/>
</svg>
