<svg width="24" height="24" viewBox="0 0 24 24" fill="none" xmlns="http://www.w3.org/2000/svg">
<path d="M12 22.75C6.07 22.75 1.25 17.93 1.25 12C1.25 6.07 6.07 1.25 12 1.25C17.93 1.25 22.75 6.07 22.75 12C22.75 17.93 17.93 22.75 12 22.75ZM12 2.75C6.9 2.75 2.75 6.9 2.75 12C2.75 17.1 6.9 21.25 12 21.25C17.1 21.25 21.25 17.1 21.25 12C21.25 6.9 17.1 2.75 12 2.75Z" fill="#09B879"/>
<path d="M10.5797 15.5816C10.3808 15.5814 10.1902 15.5023 10.0497 15.3616L7.21965 12.5316C7.08017 12.3904 7.00195 12.2 7.00195 12.0016C7.00195 11.8031 7.08017 11.6127 7.21965 11.4716C7.50965 11.1816 7.98965 11.1816 8.27965 11.4716L10.5797 13.7716L15.7197 8.63156C16.0097 8.34156 16.4897 8.34156 16.7797 8.63156C17.0697 8.92156 17.0697 9.40156 16.7797 9.69156L11.1097 15.3616C10.9691 15.5023 10.7785 15.5814 10.5797 15.5816V15.5816Z" fill="#09B879"/>
</svg>
