<svg width="29" height="21" viewBox="0 0 29 21" fill="none" xmlns="http://www.w3.org/2000/svg">
<path fill-rule="evenodd" clip-rule="evenodd" d="M7.07064 0.318359H22.8336L26.6503 8.71497V17.5597H2.51232V8.67526L7.07064 0.318359ZM8.29884 2.38732L4.58129 9.20284V15.4908H24.5813V9.16313L21.5014 2.38732H8.29884ZM0.443359 7.55974V6.18043H2.51232V7.55974H0.443359ZM26.6503 7.55974V6.18043H28.7192V7.55974H26.6503ZM6.76806 8.01378L9.52668 9.39309L8.60141 11.2436L5.84279 9.86432L6.76806 8.01378ZM23.3198 9.86432L20.5612 11.2436L19.6359 9.39309L22.3945 8.01378L23.3198 9.86432ZM4.23646 18.2494H9.06405V20.3184H4.23646V18.2494ZM24.9261 20.3184H20.0985V18.2494H24.9261V20.3184Z" fill="white"/>
</svg>
